<svg xmlns="http://www.w3.org/2000/svg" version="1.1" xmlns:xlink="http://www.w3.org/1999/xlink" xmlns:svgjs="http://svgjs.dev/svgjs" width="2000" height="378" viewBox="0 0 2000 378"><g transform="matrix(1,0,0,1,-1.2121212121212466,-0.997538042729218)"><svg viewBox="0 0 396 75" data-background-color="#ffffff" preserveAspectRatio="xMidYMid meet" height="378" width="2000" xmlns="http://www.w3.org/2000/svg" xmlns:xlink="http://www.w3.org/1999/xlink"><g id="tight-bounds" transform="matrix(1,0,0,1,0.2400000000000091,0.1979242148272249)"><svg viewBox="0 0 395.52 74.60415157034555" height="74.60415157034555" width="395.52"><g><svg viewBox="0 0 501.9313399194174 94.67577306142509" height="74.60415157034555" width="395.52"><g transform="matrix(1,0,0,1,106.41133991941743,0.41573030416719803)"><svg viewBox="0 0 395.52 93.8443124530907" height="93.8443124530907" width="395.52"><g id="textblocktransform"><svg viewBox="0 0 395.52 93.8443124530907" height="93.8443124530907" width="395.52" id="textblock"><g><svg viewBox="0 0 395.52 68.67251381745531" height="68.67251381745531" width="395.52"><rect width="395.52" height="68.67251381745531" x="0" y="0" opacity="1" fill="#000000" data-fill-palette-color="tertiary"></rect><g transform="matrix(1,0,0,1,23.461705032,23.461705032)"><svg width="348.596589936" viewBox="2.92 -36.3 594.34 37.08" height="21.74910375345531" data-palette-color="#ffffff"><path d="M25.26 0.78L25.26 0.78Q15.89 0.78 9.4-1.46 2.92-3.7 2.92-9.69L2.92-9.69 2.92-10 7.6-10 7.6-9.69Q7.6-6.41 12.01-4.84 16.41-3.28 25.26-3.28L25.26-3.28Q33.8-3.28 38.31-4.69 42.81-6.09 42.81-8.75L42.81-8.75Q42.81-10.68 40.1-12.01 37.4-13.33 33.88-14.19 30.36-15.05 27.08-15.55 23.8-16.04 22.6-16.25L22.6-16.25Q20.21-16.67 17.03-17.19 13.85-17.71 11.02-18.8 8.18-19.9 6.2-21.88 4.22-23.85 4.22-27.14L4.22-27.14Q4.22-31.3 8.88-33.78 13.54-36.25 24.84-36.25L24.84-36.25Q37.45-36.25 41.82-33.36 46.2-30.47 46.2-25.99L46.2-25.99 46.2-25.68 41.46-25.68 41.46-25.99Q41.46-29.38 37.58-30.81 33.7-32.24 24.84-32.24L24.84-32.24Q16.35-32.24 12.6-31.04 8.85-29.84 8.85-26.93L8.85-26.93Q8.85-25.57 10.89-24.51 12.92-23.44 15.73-22.63 18.54-21.82 21.54-21.28 24.53-20.73 26.46-20.42L26.46-20.42Q36.93-18.75 42.11-16.43 47.29-14.11 47.29-8.75L47.29-8.75Q47.29-3.96 41.51-1.59 35.73 0.78 25.26 0.78ZM60.36 0L55.67 0 55.67-35.57 60.36-35.57 60.36-20.26 89.53-20.26 89.53-35.57 94.32-35.57 94.32 0 89.53 0 89.53-16.41 60.36-16.41 60.36 0ZM125.05 0.78L125.05 0.78Q116.3 0.78 109.94-3.52 103.59-7.81 103.59-17.29L103.59-17.29 103.59-18.18Q103.59-27.66 109.94-31.95 116.3-36.25 125.05-36.25L125.05-36.25Q133.75-36.25 140.1-31.9 146.45-27.55 146.45-18.18L146.45-18.18 146.45-17.29Q146.45-7.92 140.1-3.57 133.75 0.78 125.05 0.78ZM125.05-3.28L125.05-3.28Q131.92-3.28 136.82-6.56 141.71-9.84 141.71-17.29L141.71-17.29 141.71-18.18Q141.71-25.63 136.82-28.93 131.92-32.24 125.05-32.24L125.05-32.24Q118.07-32.24 113.2-28.96 108.33-25.68 108.33-18.18L108.33-18.18 108.33-17.29Q108.33-9.79 113.22-6.54 118.12-3.28 125.05-3.28ZM160.36 0L155.67 0 155.67-35.57 182.6-35.57Q185.2-35.57 187.86-35.03 190.51-34.48 192.65-33.23 194.78-31.98 196.16-29.9 197.54-27.81 197.54-24.74L197.54-24.74Q197.54-21.67 196.19-19.58 194.84-17.5 192.67-16.25 190.51-15 187.86-14.45 185.2-13.91 182.6-13.91L182.6-13.91 160.36-13.91 160.36 0ZM160.36-31.67L160.36-17.76 182.6-17.76Q186.14-17.76 189.5-19.09 192.86-20.42 192.86-24.74L192.86-24.74Q192.86-29.06 189.45-30.36 186.03-31.67 182.6-31.67L182.6-31.67 160.36-31.67ZM210.35 0L205.67 0 205.67-35.57 232.59-35.57Q235.2-35.57 237.85-35.03 240.51-34.48 242.65-33.23 244.78-31.98 246.16-29.9 247.54-27.81 247.54-24.74L247.54-24.74Q247.54-21.67 246.19-19.58 244.83-17.5 242.67-16.25 240.51-15 237.85-14.45 235.2-13.91 232.59-13.91L232.59-13.91 210.35-13.91 210.35 0ZM210.35-31.67L210.35-17.76 232.59-17.76Q236.14-17.76 239.5-19.09 242.85-20.42 242.85-24.74L242.85-24.74Q242.85-29.06 239.44-30.36 236.03-31.67 232.59-31.67L232.59-31.67 210.35-31.67ZM297.85 0L255.77 0 255.77-36.3 260.77-36.3 260.77-3.91 297.85-3.91 297.85 0ZM325.04 0.78L325.04 0.78Q321.29 0.78 317.69-0.23 314.1-1.25 311.29-3.31 308.47-5.36 306.76-8.49 305.04-11.61 305.04-15.83L305.04-15.83 305.04-35.57 309.72-35.57 309.72-15.83Q309.72-9.01 314.39-6.15 319.05-3.28 325.04-3.28L325.04-3.28Q330.92-3.28 335.64-6.2 340.35-9.11 340.35-15.83L340.35-15.83 340.35-35.57 344.93-35.57 344.93-15.83Q344.93-11.61 343.24-8.49 341.55-5.36 338.74-3.31 335.92-1.25 332.35-0.23 328.79 0.78 325.04 0.78ZM375.24 0.78L375.24 0.78Q365.87 0.78 359.38-1.46 352.9-3.7 352.9-9.69L352.9-9.69 352.9-10 357.59-10 357.59-9.69Q357.59-6.41 361.99-4.84 366.39-3.28 375.24-3.28L375.24-3.28Q383.78-3.28 388.29-4.69 392.8-6.09 392.8-8.75L392.8-8.75Q392.8-10.68 390.09-12.01 387.38-13.33 383.86-14.19 380.35-15.05 377.07-15.55 373.78-16.04 372.59-16.25L372.59-16.25Q370.19-16.67 367.01-17.19 363.84-17.71 361-18.8 358.16-19.9 356.18-21.88 354.2-23.85 354.2-27.14L354.2-27.14Q354.2-31.3 358.86-33.78 363.52-36.25 374.83-36.25L374.83-36.25Q387.43-36.25 391.81-33.36 396.18-30.47 396.18-25.99L396.18-25.99 396.18-25.68 391.44-25.68 391.44-25.99Q391.44-29.38 387.56-30.81 383.68-32.24 374.83-32.24L374.83-32.24Q366.34-32.24 362.59-31.04 358.84-29.84 358.84-26.93L358.84-26.93Q358.84-25.57 360.87-24.51 362.9-23.44 365.71-22.63 368.52-21.82 371.52-21.28 374.51-20.73 376.44-20.42L376.44-20.42Q386.91-18.75 392.09-16.43 397.27-14.11 397.27-8.75L397.27-8.75Q397.27-3.96 391.49-1.59 385.71 0.78 375.24 0.78ZM410.34 0L405.66 0 405.66-35.57 432.58-35.57Q435.19-35.57 437.84-35.03 440.5-34.48 442.64-33.23 444.77-31.98 446.15-29.9 447.53-27.81 447.53-24.74L447.53-24.74Q447.53-21.67 446.18-19.58 444.82-17.5 442.66-16.25 440.5-15 437.84-14.45 435.19-13.91 432.58-13.91L432.58-13.91 410.34-13.91 410.34 0ZM410.34-31.67L410.34-17.76 432.58-17.76Q436.13-17.76 439.49-19.09 442.84-20.42 442.84-24.74L442.84-24.74Q442.84-29.06 439.43-30.36 436.02-31.67 432.58-31.67L432.58-31.67 410.34-31.67ZM497.84 0L455.76 0 455.76-36.3 460.76-36.3 460.76-3.91 497.84-3.91 497.84 0ZM525.03 0.78L525.03 0.78Q521.28 0.78 517.68-0.23 514.09-1.25 511.28-3.31 508.46-5.36 506.75-8.49 505.03-11.61 505.03-15.83L505.03-15.83 505.03-35.57 509.71-35.57 509.71-15.83Q509.71-9.01 514.38-6.15 519.04-3.28 525.03-3.28L525.03-3.28Q530.91-3.28 535.63-6.2 540.34-9.11 540.34-15.83L540.34-15.83 540.34-35.57 544.92-35.57 544.92-15.83Q544.92-11.61 543.23-8.49 541.54-5.36 538.73-3.31 535.91-1.25 532.34-0.23 528.78 0.78 525.03 0.78ZM575.23 0.78L575.23 0.78Q565.86 0.78 559.37-1.46 552.89-3.7 552.89-9.69L552.89-9.69 552.89-10 557.58-10 557.58-9.69Q557.58-6.41 561.98-4.84 566.38-3.28 575.23-3.28L575.23-3.28Q583.77-3.28 588.28-4.69 592.78-6.09 592.78-8.75L592.78-8.75Q592.78-10.68 590.08-12.01 587.37-13.33 583.85-14.19 580.34-15.05 577.06-15.55 573.77-16.04 572.58-16.25L572.58-16.25Q570.18-16.67 567-17.19 563.83-17.71 560.99-18.8 558.15-19.9 556.17-21.88 554.19-23.85 554.19-27.14L554.19-27.14Q554.19-31.3 558.85-33.78 563.51-36.25 574.82-36.25L574.82-36.25Q587.42-36.25 591.8-33.36 596.17-30.47 596.17-25.99L596.17-25.99 596.17-25.68 591.43-25.68 591.43-25.99Q591.43-29.38 587.55-30.81 583.67-32.24 574.82-32.24L574.82-32.24Q566.33-32.24 562.58-31.04 558.83-29.84 558.83-26.93L558.83-26.93Q558.83-25.57 560.86-24.51 562.89-23.44 565.7-22.63 568.51-21.82 571.51-21.28 574.5-20.73 576.43-20.42L576.43-20.42Q586.9-18.75 592.08-16.43 597.26-14.11 597.26-8.75L597.26-8.75Q597.26-3.96 591.48-1.59 585.7 0.78 575.23 0.78Z" opacity="1" transform="matrix(1,0,0,1,0,0)" fill="#ffffff" class="wordmark-text-0" data-fill-palette-color="quaternary" id="text-0"></path></svg></g></svg></g><g transform="matrix(1,0,0,1,0,80.40336633345531)"><svg viewBox="0 0 395.52 13.440946119635381" height="13.440946119635381" width="395.52"><g transform="matrix(1,0,0,1,0,0)"><svg width="395.52" viewBox="4.45 -42.5 1583.8799999999999 53.83" height="13.440946119635381" data-palette-color="#61777f"><path d="M26.4 0L4.45 0 4.45-36.35 25.33-36.35 25.33-32.33 7.08-32.33 9.1-34.25 9.1-19.73 7.08-21.08 23.55-21.08 23.55-17.05 7.78-17.05 9.1-18.53 9.1-1.7 7.08-4.1 26.4-4.1 26.4 0ZM59.49 0.38L59.49 0.38Q56.79 0.38 54.93-0.43 53.06-1.23 52.1-2.99 51.14-4.75 51.14-7.63L51.14-7.63 51.14-32.13Q51.14-33.3 51.6-33.98 52.06-34.65 52.91-34.75L52.91-34.75 43.09-34.75 43.09-38.9 56.01-38.9 55.96-8.35Q55.96-5.73 56.9-4.85 57.84-3.98 60.26-3.98L60.26-3.98Q62.56-3.98 64.15-4.38 65.74-4.78 67.14-5.4L67.14-5.4 67.14-0.95Q65.76-0.4 63.76-0.01 61.76 0.38 59.49 0.38ZM96.33 0.38L96.33 0.38Q92.95 0.38 90.19-1.25 87.43-2.88 85.79-6.04 84.15-9.2 84.15-13.78L84.15-13.78Q84.15-18.2 85.69-21.35 87.23-24.5 89.91-26.16 92.6-27.83 96.03-27.83L96.03-27.83Q101.03-27.83 104.05-24.51 107.08-21.2 107.08-15.15L107.08-15.15Q107.08-14.35 107.03-13.83 106.98-13.3 106.95-12.73L106.95-12.73 88.7-12.73Q88.75-9.65 89.84-7.65 90.93-5.65 92.66-4.66 94.4-3.68 96.4-3.68L96.4-3.68Q98.85-3.68 100.28-4.63 101.7-5.58 102.18-7.75L102.18-7.75 106.55-7.75Q106.3-5.2 104.96-3.39 103.63-1.58 101.43-0.6 99.23 0.38 96.33 0.38ZM88.7-14.45L88.7-14.45Q88.9-15.5 89.58-15.86 90.25-16.23 91.4-16.23L91.4-16.23 102.38-16.23Q102.35-19.95 100.78-21.86 99.2-23.78 96.08-23.78L96.08-23.78Q92.48-23.78 90.61-21.28 88.75-18.78 88.7-14.45ZM138.51 0L132.94 0 122.89-27.28 128.26-27.28 133.56-10.6 135.49-4.5 135.96-4.5 137.91-10.63 143.19-27.28 148.54-27.28 138.51 0ZM173.3 0.3L173.3 0.3Q169.45 0.3 167.21-1.76 164.98-3.83 164.98-7.33L164.98-7.33Q164.98-10.38 166.96-12.31 168.95-14.25 173.03-15.03L173.03-15.03Q174.6-15.33 176.23-15.53 177.85-15.73 179.38-15.86 180.9-16 182.15-16.05L182.15-16.05 182.15-18.15Q182.15-21.23 180.74-22.55 179.33-23.88 176.35-23.88L176.35-23.88Q173.23-23.88 171.64-22.59 170.05-21.3 170.15-18.18L170.15-18.18 165.8-18.18Q165.5-21.08 166.74-23.24 167.98-25.4 170.46-26.6 172.95-27.8 176.38-27.8L176.38-27.8Q181.43-27.8 184.03-25.31 186.63-22.83 186.63-18L186.63-18 186.63 0 182.18 0 182.15-5.93Q181.63-4.1 180.35-2.69 179.08-1.28 177.26-0.49 175.45 0.3 173.3 0.3ZM174.63-3.38L174.63-3.38Q176.3-3.38 177.91-4.01 179.53-4.65 180.7-5.69 181.88-6.73 182.15-7.93L182.15-7.93 182.15-13.23Q181.25-13.18 180.06-13.04 178.88-12.9 177.7-12.71 176.53-12.53 175.63-12.33L175.63-12.33Q172.43-11.63 171.15-10.53 169.88-9.43 169.88-7.58L169.88-7.58Q169.88-5.63 171.11-4.51 172.35-3.4 174.63-3.38ZM219.21 0.38L219.21 0.38Q216.61 0.38 214.75-0.45 212.89-1.28 211.9-3.04 210.91-4.8 210.91-7.63L210.91-7.63 210.91-19.65Q210.91-20.33 211.14-21.08 211.36-21.83 211.88-22.4 212.39-22.98 213.24-23.1L213.24-23.1 210.89-26.2 210.99-27.05 212.11-36.85 215.74-36.85 215.74-8.35Q215.74-5.7 216.83-4.84 217.91-3.98 220.44-3.98L220.44-3.98Q222.16-3.98 223.43-4.17 224.69-4.38 225.68-4.7 226.66-5.03 227.56-5.4L227.56-5.4 227.56-0.95Q226.06-0.4 224.1-0.01 222.14 0.38 219.21 0.38ZM225.24-23.1L204.54-23.1 204.54-27.3 225.24-27.3 225.24-23.1ZM257.28 0.38L257.28 0.38Q253.9 0.38 251.14-1.25 248.38-2.88 246.74-6.04 245.1-9.2 245.1-13.78L245.1-13.78Q245.1-18.2 246.64-21.35 248.18-24.5 250.87-26.16 253.55-27.83 256.98-27.83L256.98-27.83Q261.98-27.83 265-24.51 268.03-21.2 268.03-15.15L268.03-15.15Q268.03-14.35 267.98-13.83 267.93-13.3 267.9-12.73L267.9-12.73 249.65-12.73Q249.7-9.65 250.79-7.65 251.88-5.65 253.62-4.66 255.35-3.68 257.35-3.68L257.35-3.68Q259.8-3.68 261.23-4.63 262.65-5.58 263.13-7.75L263.13-7.75 267.5-7.75Q267.25-5.2 265.92-3.39 264.58-1.58 262.38-0.6 260.18 0.38 257.28 0.38ZM249.65-14.45L249.65-14.45Q249.85-15.5 250.53-15.86 251.2-16.23 252.35-16.23L252.35-16.23 263.33-16.23Q263.3-19.95 261.73-21.86 260.15-23.78 257.03-23.78L257.03-23.78Q253.43-23.78 251.57-21.28 249.7-18.78 249.65-14.45ZM339.08-12.2L334.75-12.2 322.73-36.35 328.05-36.35 332.63-26.43 336.7-17.55 337.08-17.55 341.18-26.4 345.78-36.35 351.08-36.35 339.08-12.2ZM339.18 0L334.63 0 334.63-14.6 339.18-14.6 339.18 0ZM377.14 0.38L377.14 0.38Q373.67 0.38 370.98-1.26 368.29-2.9 366.77-6.06 365.24-9.22 365.24-13.8L365.24-13.8Q365.24-18.2 366.82-21.34 368.39-24.48 371.09-26.15 373.79-27.83 377.14-27.83L377.14-27.83Q380.72-27.83 383.39-26.15 386.07-24.48 387.55-21.34 389.04-18.2 389.04-13.8L389.04-13.8Q389.04-9.2 387.45-6.04 385.87-2.88 383.17-1.25 380.47 0.38 377.14 0.38ZM377.14-3.73L377.14-3.73Q380.32-3.73 382.3-6.21 384.29-8.7 384.29-13.8L384.29-13.8Q384.29-18.65 382.35-21.19 380.42-23.73 377.14-23.73L377.14-23.73Q373.97-23.73 371.98-21.19 369.99-18.65 369.99-13.8L369.99-13.8Q369.99-8.88 371.98-6.3 373.97-3.73 377.14-3.73ZM414.85 0.55L414.85 0.55Q411.3 0.55 409.1-1.85 406.9-4.25 406.9-8.55L406.9-8.55 406.9-27.3 411.53-27.3 411.53-9.5Q411.53-6.65 412.65-5.23 413.78-3.8 416.3-3.8L416.3-3.8Q418.53-3.8 420.19-5.01 421.85-6.23 422.98-8.38L422.98-8.38 422.98-27.3 427.65-27.3 427.65 0 423.65 0 423.13-9.47 423.63-8.22Q423.33-5.83 422.29-3.84 421.25-1.85 419.42-0.65 417.58 0.55 414.85 0.55ZM464.57 0L445.54 0 445.54-3.78 464.57-3.78 464.57 0ZM453.44-23.03L445.27-23.03 445.27-27.33 453.27-27.33 453.44-23.03ZM455.54-0.5L450.89-0.5 450.89-20.38Q450.89-21.75 451.36-22.3 451.82-22.85 452.87-23.03L452.87-23.03 450.89-24.5 450.89-27.33 454.92-27.33 455.24-20Q455.87-22.35 457.22-24.11 458.57-25.88 460.39-26.86 462.22-27.85 464.19-27.85L464.19-27.85Q467.59-27.85 469.47-25.34 471.34-22.83 471.22-17.68L471.22-17.68 466.67-17.68Q466.62-20.85 465.61-22.18 464.59-23.5 462.37-23.5L462.37-23.5Q460.37-23.5 458.44-21.96 456.52-20.43 455.54-18.25L455.54-18.25 455.54-5.75Q455.54-4.95 455.18-4.46 454.82-3.98 454.02-3.78L454.02-3.78 455.54-2.85 455.54-0.5ZM538.09 0.75L538.09 0.75Q534.14 0.75 531.24-1.48 528.34-3.7 526.77-7.96 525.19-12.23 525.19-18.38L525.19-18.38Q525.19-27.43 528.68-32.25 532.17-37.08 538.09-37.08L538.09-37.08Q544.07-37.08 547.53-32.25 550.99-27.43 550.99-18.38L550.99-18.38Q550.99-12.23 549.43-7.96 547.87-3.7 544.97-1.48 542.07 0.75 538.09 0.75ZM538.09-3.6L538.09-3.6Q541.92-3.6 544.08-7.2 546.24-10.8 546.24-18.38L546.24-18.38Q546.24-25.85 544.08-29.29 541.92-32.73 538.09-32.73L538.09-32.73Q534.29-32.73 532.13-29.29 529.97-25.85 529.97-18.38L529.97-18.38Q529.97-10.8 532.13-7.2 534.29-3.6 538.09-3.6ZM572.78 0L568.13 0 568.13-27.33 572.16-27.33 572.63-17.43 572.16-19.1Q572.71-23.33 575.01-25.59 577.31-27.85 581.03-27.85L581.03-27.85Q584.83-27.85 586.84-25.4 588.86-22.95 588.86-18.35L588.86-18.35 588.86 0 584.21 0 584.21-16.82Q584.21-20.33 583.07-21.91 581.93-23.5 579.38-23.5L579.38-23.5Q577.26-23.5 575.53-22.29 573.81-21.08 572.78-18.93L572.78-18.93 572.78 0ZM622.82 0.38L622.82 0.38Q620.12 0.38 618.26-0.43 616.39-1.23 615.43-2.99 614.47-4.75 614.47-7.63L614.47-7.63 614.47-32.13Q614.47-33.3 614.93-33.98 615.39-34.65 616.24-34.75L616.24-34.75 606.42-34.75 606.42-38.9 619.34-38.9 619.29-8.35Q619.29-5.73 620.23-4.85 621.17-3.98 623.59-3.98L623.59-3.98Q625.89-3.98 627.48-4.38 629.07-4.78 630.47-5.4L630.47-5.4 630.47-0.95Q629.09-0.4 627.09-0.01 625.09 0.38 622.82 0.38ZM662.96-0.65L658.46-0.65 658.46-19.95Q658.46-21.2 658.91-22.06 659.36-22.93 660.66-23.03L660.66-23.03 658.46-23.88 658.28-26 663.03-27.28 662.96-0.65ZM671.08 0L649.56 0 649.56-3.78 671.08-3.78 671.08 0ZM661.86-23.03L648.81-23.03 648.81-27.28 663.03-27.28 661.86-23.03ZM660.53-32.08L660.53-32.08Q659.01-32.08 657.95-33.13 656.88-34.18 656.88-35.85L656.88-35.85Q656.88-37.55 657.95-38.61 659.01-39.68 660.53-39.68L660.53-39.68Q662.06-39.68 663.12-38.61 664.18-37.55 664.18-35.85L664.18-35.85Q664.18-34.18 663.11-33.13 662.03-32.08 660.53-32.08ZM693.5 0L688.85 0 688.85-27.33 692.87-27.33 693.35-17.43 692.87-19.1Q693.42-23.33 695.72-25.59 698.02-27.85 701.75-27.85L701.75-27.85Q705.55-27.85 707.56-25.4 709.57-22.95 709.57-18.35L709.57-18.35 709.57 0 704.92 0 704.92-16.82Q704.92-20.33 703.78-21.91 702.65-23.5 700.1-23.5L700.1-23.5Q697.97-23.5 696.25-22.29 694.52-21.08 693.5-18.93L693.5-18.93 693.5 0ZM740.13 0.38L740.13 0.38Q736.76 0.38 734-1.25 731.23-2.88 729.6-6.04 727.96-9.2 727.96-13.78L727.96-13.78Q727.96-18.2 729.5-21.35 731.03-24.5 733.72-26.16 736.41-27.83 739.83-27.83L739.83-27.83Q744.83-27.83 747.86-24.51 750.88-21.2 750.88-15.15L750.88-15.15Q750.88-14.35 750.83-13.83 750.78-13.3 750.76-12.73L750.76-12.73 732.51-12.73Q732.56-9.65 733.65-7.65 734.73-5.65 736.47-4.66 738.21-3.68 740.21-3.68L740.21-3.68Q742.66-3.68 744.08-4.63 745.51-5.58 745.98-7.75L745.98-7.75 750.36-7.75Q750.11-5.2 748.77-3.39 747.43-1.58 745.23-0.6 743.03 0.38 740.13 0.38ZM732.51-14.45L732.51-14.45Q732.71-15.5 733.38-15.86 734.06-16.23 735.21-16.23L735.21-16.23 746.18-16.23Q746.16-19.95 744.58-21.86 743.01-23.78 739.88-23.78L739.88-23.78Q736.28-23.78 734.42-21.28 732.56-18.78 732.51-14.45ZM819.93 0.5L819.93 0.5Q816.18 0.5 813.27-0.7 810.36-1.9 808.68-4.42 807.01-6.95 806.96-10.95L806.96-10.95 811.56-10.95Q811.61-8.25 812.81-6.66 814.01-5.08 815.95-4.39 817.88-3.7 820.11-3.7L820.11-3.7Q822.68-3.7 824.37-4.46 826.06-5.23 826.91-6.48 827.76-7.73 827.76-9.15L827.76-9.15Q827.76-11.2 826.71-12.48 825.66-13.75 823.71-14.61 821.76-15.48 819.08-16.32L819.08-16.32Q816.13-17.28 813.72-18.73 811.31-20.18 809.88-22.29 808.46-24.4 808.46-27.3L808.46-27.3Q808.46-30.5 810.03-32.64 811.61-34.77 814.25-35.85 816.88-36.93 820.06-36.93L820.06-36.93Q824.81-36.93 827.81-34.41 830.81-31.9 831.43-26.78L831.43-26.78 826.98-26.78Q826.76-28.48 825.97-29.83 825.18-31.18 823.71-31.96 822.23-32.75 819.91-32.75L819.91-32.75Q816.71-32.75 814.83-31.35 812.96-29.95 812.96-27.48L812.96-27.48Q812.96-25.73 813.65-24.49 814.33-23.25 816.05-22.24 817.76-21.23 820.78-20.13L820.78-20.13Q822.96-19.35 825.02-18.5 827.08-17.65 828.72-16.49 830.36-15.33 831.33-13.61 832.31-11.9 832.31-9.38L832.31-9.38Q832.33-6.28 830.8-4.06 829.26-1.85 826.47-0.68 823.68 0.5 819.93 0.5ZM854.22 0L849.6 0 849.6-38.9 854.22-38.9 854.22-27.28 853.67-19.23 854.05-17.3 853.5-19.07Q853.8-21.35 854.81-23.35 855.82-25.35 857.71-26.6 859.6-27.85 862.52-27.85L862.52-27.85Q866.4-27.85 868.42-25.51 870.45-23.18 870.45-18.55L870.45-18.55 870.45 0 865.82 0 865.82-17.03Q865.82-20.38 864.76-21.94 863.7-23.5 860.95-23.5L860.95-23.5Q858.67-23.5 857.02-22.36 855.37-21.23 854.22-18.95L854.22-18.95 854.22 0ZM900.24 0.38L900.24 0.38Q896.76 0.38 894.07-1.26 891.39-2.9 889.86-6.06 888.34-9.22 888.34-13.8L888.34-13.8Q888.34-18.2 889.91-21.34 891.49-24.48 894.19-26.15 896.89-27.83 900.24-27.83L900.24-27.83Q903.81-27.83 906.49-26.15 909.16-24.48 910.65-21.34 912.14-18.2 912.14-13.8L912.14-13.8Q912.14-9.2 910.55-6.04 908.96-2.88 906.26-1.25 903.56 0.38 900.24 0.38ZM900.24-3.73L900.24-3.73Q903.41-3.73 905.4-6.21 907.39-8.7 907.39-13.8L907.39-13.8Q907.39-18.65 905.45-21.19 903.51-23.73 900.24-23.73L900.24-23.73Q897.06-23.73 895.07-21.19 893.09-18.65 893.09-13.8L893.09-13.8Q893.09-8.88 895.07-6.3 897.06-3.73 900.24-3.73ZM934.52 10.08L929.9 10.08 929.9-27.3 934.47-27.3 934.52-23.6 934.52-6.18 934.2-4.85 934.52 0.03 934.52 10.08ZM942.87-27.8L942.87-27.8Q945.82-27.8 947.99-26.26 950.15-24.73 951.34-21.74 952.52-18.75 952.52-14.4L952.52-14.4Q952.52-9.83 950.97-6.53 949.42-3.23 946.87-1.46 944.32 0.3 941.3 0.3L941.3 0.3Q939.82 0.3 938.31-0.39 936.8-1.07 935.67-2.29 934.55-3.5 934.2-5.08L934.2-5.08 932.75-5.8 934.4-7.53Q934.77-6.15 935.71-5.3 936.65-4.45 937.86-4.08 939.07-3.7 940.22-3.7L940.22-3.7Q942.4-3.7 944.1-4.93 945.8-6.15 946.77-8.54 947.75-10.93 947.75-14.43L947.75-14.43Q947.75-18.9 946.19-21.33 944.62-23.75 941.27-23.75L941.27-23.75Q940.07-23.75 938.67-23.23 937.27-22.7 936.12-21.6 934.97-20.5 934.52-18.75L934.52-18.75 934.27-20.43 934.5-21.33Q934.8-23.2 936-24.66 937.2-26.13 939-26.96 940.8-27.8 942.87-27.8ZM974.76 10.08L970.14 10.08 970.14-27.3 974.71-27.3 974.76-23.6 974.76-6.18 974.44-4.85 974.76 0.03 974.76 10.08ZM983.11-27.8L983.11-27.8Q986.06-27.8 988.22-26.26 990.39-24.73 991.57-21.74 992.76-18.75 992.76-14.4L992.76-14.4Q992.76-9.83 991.21-6.53 989.66-3.23 987.11-1.46 984.56 0.3 981.54 0.3L981.54 0.3Q980.06 0.3 978.55-0.39 977.04-1.07 975.91-2.29 974.79-3.5 974.44-5.08L974.44-5.08 972.99-5.8 974.64-7.53Q975.01-6.15 975.95-5.3 976.89-4.45 978.1-4.08 979.31-3.7 980.46-3.7L980.46-3.7Q982.64-3.7 984.34-4.93 986.04-6.15 987.01-8.54 987.99-10.93 987.99-14.43L987.99-14.43Q987.99-18.9 986.42-21.33 984.86-23.75 981.51-23.75L981.51-23.75Q980.31-23.75 978.91-23.23 977.51-22.7 976.36-21.6 975.21-20.5 974.76-18.75L974.76-18.75 974.51-20.43 974.74-21.33Q975.04-23.2 976.24-24.66 977.44-26.13 979.24-26.96 981.04-27.8 983.11-27.8ZM1025.1-0.65L1020.6-0.65 1020.6-19.95Q1020.6-21.2 1021.05-22.06 1021.5-22.93 1022.8-23.03L1022.8-23.03 1020.6-23.88 1020.42-26 1025.17-27.28 1025.1-0.65ZM1033.22 0L1011.7 0 1011.7-3.78 1033.22-3.78 1033.22 0ZM1024-23.03L1010.95-23.03 1010.95-27.28 1025.17-27.28 1024-23.03ZM1022.67-32.08L1022.67-32.08Q1021.15-32.08 1020.09-33.13 1019.02-34.18 1019.02-35.85L1019.02-35.85Q1019.02-37.55 1020.09-38.61 1021.15-39.68 1022.67-39.68L1022.67-39.68Q1024.2-39.68 1025.26-38.61 1026.32-37.55 1026.32-35.85L1026.32-35.85Q1026.32-34.18 1025.25-33.13 1024.17-32.08 1022.67-32.08ZM1055.64 0L1050.99 0 1050.99-27.33 1055.01-27.33 1055.49-17.43 1055.01-19.1Q1055.56-23.33 1057.86-25.59 1060.16-27.85 1063.89-27.85L1063.89-27.85Q1067.69-27.85 1069.7-25.4 1071.71-22.95 1071.71-18.35L1071.71-18.35 1071.71 0 1067.06 0 1067.06-16.82Q1067.06-20.33 1065.93-21.91 1064.79-23.5 1062.24-23.5L1062.24-23.5Q1060.11-23.5 1058.39-22.29 1056.66-21.08 1055.64-18.93L1055.64-18.93 1055.64 0ZM1101.98 11.33L1101.98 11.33Q1098.18 11.33 1095.29 10.35 1092.4 9.38 1090.78 7.59 1089.15 5.8 1089.15 3.38L1089.15 3.38Q1089.15 1.68 1089.91 0.41 1090.68-0.85 1092.05-1.61 1093.43-2.38 1095.23-2.5L1095.23-2.5 1096.28-2.38Q1095.65-1.98 1095.06-1.4 1094.48-0.83 1094.1 0.09 1093.73 1 1093.73 2.38L1093.73 2.38Q1093.73 3.73 1094.46 4.85 1095.2 5.98 1097 6.66 1098.8 7.35 1101.93 7.35L1101.93 7.35Q1106 7.35 1107.83 6.1 1109.65 4.85 1109.65 2.58L1109.65 2.58Q1109.65 1.1 1108.68 0.4 1107.7-0.3 1104.85-0.68L1104.85-0.68 1098.38-1.53Q1095.08-1.95 1093.46-2.81 1091.85-3.68 1091.34-4.69 1090.83-5.7 1090.83-6.55L1090.83-6.55Q1090.83-7.78 1091.46-8.6 1092.1-9.43 1093.09-9.91 1094.08-10.4 1095.14-10.59 1096.2-10.78 1097.03-10.7L1097.03-10.7Q1096.18-10.35 1095.65-9.74 1095.13-9.13 1095.13-8.03L1095.13-8.03Q1095.13-6.85 1096.09-6.26 1097.05-5.68 1099.35-5.38L1099.35-5.38 1105.85-4.58Q1109.3-4.13 1111.14-3.04 1112.98-1.95 1113.65-0.5 1114.33 0.95 1114.33 2.53L1114.33 2.53Q1114.33 4.7 1113.44 6.35 1112.55 8 1110.91 9.1 1109.28 10.2 1107.01 10.76 1104.75 11.33 1101.98 11.33ZM1101.8-9.6L1101.8-9.6Q1097.05-9.6 1094.25-12.05 1091.45-14.5 1091.45-18.65L1091.45-18.65Q1091.45-22.88 1094.29-25.34 1097.13-27.8 1101.85-27.75L1101.85-27.75Q1104.93-27.73 1107.24-26.63 1109.55-25.53 1110.85-23.5 1112.15-21.48 1112.15-18.65L1112.15-18.65Q1112.15-14.48 1109.36-12.04 1106.58-9.6 1101.8-9.6ZM1101.85-13.38L1101.85-13.38Q1104.8-13.38 1106.3-14.74 1107.8-16.1 1107.8-18.68L1107.8-18.68Q1107.8-21.2 1106.28-22.59 1104.75-23.98 1101.75-23.98L1101.75-23.98Q1098.73-23.98 1097.26-22.63 1095.8-21.28 1095.8-18.7L1095.8-18.7Q1095.8-16.15 1097.33-14.76 1098.85-13.38 1101.85-13.38ZM1104.83-26.78L1104.83-26.78 1104.5-27.03Q1104.73-29 1105.69-30.29 1106.65-31.58 1108.05-32.21 1109.45-32.85 1110.95-32.85L1110.95-32.85Q1111.73-32.85 1112.19-32.8 1112.65-32.75 1112.95-32.63L1112.95-32.63 1112.95-28.15Q1112.18-28.28 1111.5-28.35 1110.83-28.43 1109.88-28.43L1109.88-28.43Q1108.88-28.43 1108-28.3 1107.13-28.18 1106.35-27.83 1105.58-27.48 1104.83-26.78ZM1193.3 0L1171.35 0 1171.35-36.35 1192.23-36.35 1192.23-32.33 1173.98-32.33 1176-34.25 1176-19.73 1173.98-21.08 1190.45-21.08 1190.45-17.05 1174.68-17.05 1176-18.53 1176-1.7 1173.98-4.1 1193.3-4.1 1193.3 0ZM1215.11 0L1209.71 0 1220.16-15.08 1220.19-12.13 1209.99-27.28 1215.24-27.28 1220.54-19.05 1222.16-16.2 1223.69-19 1228.94-27.28 1234.36-27.28 1223.91-12.13 1223.96-15.08 1234.56 0 1229.21 0 1223.61-8.3 1222.01-10.93 1220.44-8.22 1215.11 0ZM1256.43 10.08L1251.8 10.08 1251.8-27.3 1256.38-27.3 1256.43-23.6 1256.43-6.18 1256.1-4.85 1256.43 0.03 1256.43 10.08ZM1264.78-27.8L1264.78-27.8Q1267.73-27.8 1269.89-26.26 1272.05-24.73 1273.24-21.74 1274.43-18.75 1274.43-14.4L1274.43-14.4Q1274.43-9.83 1272.88-6.53 1271.33-3.23 1268.78-1.46 1266.23 0.3 1263.2 0.3L1263.2 0.3Q1261.73 0.3 1260.21-0.39 1258.7-1.07 1257.58-2.29 1256.45-3.5 1256.1-5.08L1256.1-5.08 1254.65-5.8 1256.3-7.53Q1256.68-6.15 1257.61-5.3 1258.55-4.45 1259.76-4.08 1260.98-3.7 1262.13-3.7L1262.13-3.7Q1264.3-3.7 1266-4.93 1267.7-6.15 1268.68-8.54 1269.65-10.93 1269.65-14.43L1269.65-14.43Q1269.65-18.9 1268.09-21.33 1266.53-23.75 1263.18-23.75L1263.18-23.75Q1261.98-23.75 1260.58-23.23 1259.18-22.7 1258.03-21.6 1256.88-20.5 1256.43-18.75L1256.43-18.75 1256.18-20.43 1256.4-21.33Q1256.7-23.2 1257.9-24.66 1259.1-26.13 1260.9-26.96 1262.7-27.8 1264.78-27.8ZM1303.47 0.38L1303.47 0.38Q1300.09 0.38 1297.33-1.25 1294.57-2.88 1292.93-6.04 1291.29-9.2 1291.29-13.78L1291.29-13.78Q1291.29-18.2 1292.83-21.35 1294.37-24.5 1297.05-26.16 1299.74-27.83 1303.17-27.83L1303.17-27.83Q1308.17-27.83 1311.19-24.51 1314.22-21.2 1314.22-15.15L1314.22-15.15Q1314.22-14.35 1314.17-13.83 1314.12-13.3 1314.09-12.73L1314.09-12.73 1295.84-12.73Q1295.89-9.65 1296.98-7.65 1298.07-5.65 1299.8-4.66 1301.54-3.68 1303.54-3.68L1303.54-3.68Q1305.99-3.68 1307.42-4.63 1308.84-5.58 1309.32-7.75L1309.32-7.75 1313.69-7.75Q1313.44-5.2 1312.1-3.39 1310.77-1.58 1308.57-0.6 1306.37 0.38 1303.47 0.38ZM1295.84-14.45L1295.84-14.45Q1296.04-15.5 1296.72-15.86 1297.39-16.23 1298.54-16.23L1298.54-16.23 1309.52-16.23Q1309.49-19.95 1307.92-21.86 1306.34-23.78 1303.22-23.78L1303.22-23.78Q1299.62-23.78 1297.75-21.28 1295.89-18.78 1295.84-14.45ZM1349.8 0L1330.78 0 1330.78-3.78 1349.8-3.78 1349.8 0ZM1338.68-23.03L1330.5-23.03 1330.5-27.33 1338.5-27.33 1338.68-23.03ZM1340.78-0.5L1336.13-0.5 1336.13-20.38Q1336.13-21.75 1336.59-22.3 1337.05-22.85 1338.1-23.03L1338.1-23.03 1336.13-24.5 1336.13-27.33 1340.15-27.33 1340.48-20Q1341.1-22.35 1342.45-24.11 1343.8-25.88 1345.63-26.86 1347.45-27.85 1349.43-27.85L1349.43-27.85Q1352.83-27.85 1354.7-25.34 1356.58-22.83 1356.45-17.68L1356.45-17.68 1351.9-17.68Q1351.85-20.85 1350.84-22.18 1349.83-23.5 1347.6-23.5L1347.6-23.5Q1345.6-23.5 1343.68-21.96 1341.75-20.43 1340.78-18.25L1340.78-18.25 1340.78-5.75Q1340.78-4.95 1340.42-4.46 1340.05-3.98 1339.25-3.78L1339.25-3.78 1340.78-2.85 1340.78-0.5ZM1387.24-0.65L1382.74-0.65 1382.74-19.95Q1382.74-21.2 1383.19-22.06 1383.64-22.93 1384.94-23.03L1384.94-23.03 1382.74-23.88 1382.57-26 1387.32-27.28 1387.24-0.65ZM1395.37 0L1373.84 0 1373.84-3.78 1395.37-3.78 1395.37 0ZM1386.14-23.03L1373.09-23.03 1373.09-27.28 1387.32-27.28 1386.14-23.03ZM1384.82-32.08L1384.82-32.08Q1383.29-32.08 1382.23-33.13 1381.17-34.18 1381.17-35.85L1381.17-35.85Q1381.17-37.55 1382.23-38.61 1383.29-39.68 1384.82-39.68L1384.82-39.68Q1386.34-39.68 1387.4-38.61 1388.47-37.55 1388.47-35.85L1388.47-35.85Q1388.47-34.18 1387.39-33.13 1386.32-32.08 1384.82-32.08ZM1424.18 0.38L1424.18 0.38Q1420.8 0.38 1418.04-1.25 1415.28-2.88 1413.64-6.04 1412-9.2 1412-13.78L1412-13.78Q1412-18.2 1413.54-21.35 1415.08-24.5 1417.77-26.16 1420.45-27.83 1423.88-27.83L1423.88-27.83Q1428.88-27.83 1431.9-24.51 1434.93-21.2 1434.93-15.15L1434.93-15.15Q1434.93-14.35 1434.88-13.83 1434.83-13.3 1434.8-12.73L1434.8-12.73 1416.55-12.73Q1416.6-9.65 1417.69-7.65 1418.78-5.65 1420.52-4.66 1422.25-3.68 1424.25-3.68L1424.25-3.68Q1426.7-3.68 1428.13-4.63 1429.55-5.58 1430.03-7.75L1430.03-7.75 1434.4-7.75Q1434.15-5.2 1432.82-3.39 1431.48-1.58 1429.28-0.6 1427.08 0.38 1424.18 0.38ZM1416.55-14.45L1416.55-14.45Q1416.75-15.5 1417.43-15.86 1418.1-16.23 1419.25-16.23L1419.25-16.23 1430.23-16.23Q1430.2-19.95 1428.63-21.86 1427.05-23.78 1423.93-23.78L1423.93-23.78Q1420.33-23.78 1418.47-21.28 1416.6-18.78 1416.55-14.45ZM1458.02 0L1453.37 0 1453.37-27.33 1457.39-27.33 1457.87-17.43 1457.39-19.1Q1457.94-23.33 1460.24-25.59 1462.54-27.85 1466.27-27.85L1466.27-27.85Q1470.07-27.85 1472.08-25.4 1474.09-22.95 1474.09-18.35L1474.09-18.35 1474.09 0 1469.44 0 1469.44-16.82Q1469.44-20.33 1468.3-21.91 1467.17-23.5 1464.62-23.5L1464.62-23.5Q1462.49-23.5 1460.77-22.29 1459.04-21.08 1458.02-18.93L1458.02-18.93 1458.02 0ZM1504.63 0.45L1504.63 0.45Q1500.93 0.45 1498.21-1.29 1495.48-3.03 1493.97-6.19 1492.46-9.35 1492.46-13.65L1492.46-13.65Q1492.46-18.18 1493.99-21.34 1495.53-24.5 1498.24-26.15 1500.96-27.8 1504.43-27.8L1504.43-27.8Q1507.86-27.8 1510.23-26.35 1512.61-24.9 1513.86-22.5 1515.11-20.1 1515.16-17.25L1515.16-17.25 1510.53-17.25Q1510.48-18.45 1510.12-19.61 1509.76-20.78 1509.02-21.71 1508.28-22.65 1507.13-23.2 1505.98-23.75 1504.33-23.75L1504.33-23.75Q1500.71-23.78 1498.93-21.11 1497.16-18.45 1497.16-13.8L1497.16-13.8Q1497.16-8.85 1499.09-6.24 1501.03-3.63 1504.78-3.63L1504.78-3.63Q1506.63-3.63 1507.86-4.19 1509.08-4.75 1509.73-5.69 1510.38-6.63 1510.51-7.73L1510.51-7.73 1515.03-7.73Q1514.96-5.38 1513.59-3.53 1512.23-1.68 1509.92-0.61 1507.61 0.45 1504.63 0.45ZM1544.89 0.38L1544.89 0.38Q1541.52 0.38 1538.76-1.25 1535.99-2.88 1534.36-6.04 1532.72-9.2 1532.72-13.78L1532.72-13.78Q1532.72-18.2 1534.26-21.35 1535.79-24.5 1538.48-26.16 1541.17-27.83 1544.59-27.83L1544.59-27.83Q1549.59-27.83 1552.62-24.51 1555.64-21.2 1555.64-15.15L1555.64-15.15Q1555.64-14.35 1555.59-13.83 1555.54-13.3 1555.52-12.73L1555.52-12.73 1537.27-12.73Q1537.32-9.65 1538.41-7.65 1539.49-5.65 1541.23-4.66 1542.97-3.68 1544.97-3.68L1544.97-3.68Q1547.42-3.68 1548.84-4.63 1550.27-5.58 1550.74-7.75L1550.74-7.75 1555.12-7.75Q1554.87-5.2 1553.53-3.39 1552.19-1.58 1549.99-0.6 1547.79 0.38 1544.89 0.38ZM1537.27-14.45L1537.27-14.45Q1537.47-15.5 1538.14-15.86 1538.82-16.23 1539.97-16.23L1539.97-16.23 1550.94-16.23Q1550.92-19.95 1549.34-21.86 1547.77-23.78 1544.64-23.78L1544.64-23.78Q1541.04-23.78 1539.18-21.28 1537.32-18.78 1537.27-14.45ZM1586.01-13.23L1582.53-13.23 1581.53-30.18 1581.03-42.5 1587.51-42.5 1587.01-30.18 1586.01-13.23ZM1584.28 0.73L1584.28 0.73Q1582.53 0.73 1581.38-0.46 1580.23-1.65 1580.23-3.6L1580.23-3.6Q1580.23-5.53 1581.38-6.73 1582.53-7.93 1584.28-7.93L1584.28-7.93Q1586.03-7.93 1587.18-6.73 1588.33-5.53 1588.33-3.6L1588.33-3.6Q1588.33-1.65 1587.18-0.46 1586.03 0.73 1584.28 0.73Z" opacity="1" transform="matrix(1,0,0,1,0,0)" fill="#000000" class="slogan-text-1" data-fill-palette-color="secondary" id="text-1"></path></svg></g></svg></g></svg></g></svg></g><g><svg viewBox="0 0 94.68048740341743 94.67577306142509" height="94.67577306142509" width="94.68048740341743"><g><svg xmlns="http://www.w3.org/2000/svg" xmlns:xlink="http://www.w3.org/1999/xlink" version="1.1" x="0" y="0" viewBox="10 10 80.33399999999999 80.33" enable-background="new 0 0 100 100" xml:space="preserve" height="94.67577306142509" width="94.68048740341743" class="icon-icon-0" data-fill-palette-color="accent" id="icon-0"><g fill="#61777f" data-fill-palette-color="accent"><path d="M66.695 90.33h-33.06C20.601 90.33 10 79.725 10 66.691V33.639C10 20.597 20.601 10 33.635 10h33.06c13.034 0 23.639 10.597 23.639 23.639v33.053C90.334 79.725 79.729 90.33 66.695 90.33zM33.635 17.088c-9.124 0-16.547 7.427-16.547 16.55v33.053c0 9.123 7.423 16.55 16.547 16.55h33.06c9.124 0 16.55-7.427 16.55-16.55V33.639c0-9.124-7.426-16.55-16.55-16.55H33.635zM46.638 70.284V53.588H30.066v-6.977h16.571V30.039h7.061v16.572h16.574v6.977H53.698v16.696H46.638z" fill="#000000" data-fill-palette-color="accent"></path></g></svg></g></svg></g></svg></g><defs></defs></svg><rect width="395.52" height="74.60415157034555" fill="none" stroke="none" visibility="hidden"></rect></g></svg></g></svg>